<svg xmlns="http://www.w3.org/2000/svg" viewBox="0 0 1401.84 198.72"><title>Asset 1</title><g id="Layer_2" data-name="Layer 2"><g id="Layer_1-2" data-name="Layer 1"><path d="M229.4,75.52c-24,0-28.53,13-28.53,22.75v1.57c0,9.75,5.06,23.11,28.53,23.11,23.83,0,28.41-13.36,28.41-23.11V98.27C257.81,88.53,253.23,75.52,229.4,75.52Zm0,0c-24,0-28.53,13-28.53,22.75v1.57c0,9.75,5.06,23.11,28.53,23.11,23.83,0,28.41-13.36,28.41-23.11V98.27C257.81,88.53,253.23,75.52,229.4,75.52Zm0,0c-24,0-28.53,13-28.53,22.75v1.57c0,9.75,5.06,23.11,28.53,23.11,23.83,0,28.41-13.36,28.41-23.11V98.27C257.81,88.53,253.23,75.52,229.4,75.52Zm224.1,0c-24,0-28.53,13-28.53,22.75v1.57c0,9.75,5,23.11,28.53,23.11,23.83,0,28.41-13.36,28.41-23.11V98.27C481.91,88.53,477.33,75.52,453.5,75.52Zm0,0c-24,0-28.53,13-28.53,22.75v1.57c0,9.75,5,23.11,28.53,23.11,23.83,0,28.41-13.36,28.41-23.11V98.27C481.91,88.53,477.33,75.52,453.5,75.52Zm-224.1,0c-24,0-28.53,13-28.53,22.75v1.57c0,9.75,5.06,23.11,28.53,23.11,23.83,0,28.41-13.36,28.41-23.11V98.27C257.81,88.53,253.23,75.52,229.4,75.52Zm0,0c-24,0-28.53,13-28.53,22.75v1.57c0,9.75,5.06,23.11,28.53,23.11,23.83,0,28.41-13.36,28.41-23.11V98.27C257.81,88.53,253.23,75.52,229.4,75.52Zm224.1,0c-24,0-28.53,13-28.53,22.75v1.57c0,9.75,5,23.11,28.53,23.11,23.83,0,28.41-13.36,28.41-23.11V98.27C481.91,88.53,477.33,75.52,453.5,75.52Zm263.92,2H685.53V96.46h31.89c9,0,12.16-3.73,12.16-9.38v-.36C729.58,81.42,726.45,77.57,717.42,77.57Zm0,0H685.53V96.46h31.89c9,0,12.16-3.73,12.16-9.38v-.36C729.58,81.42,726.45,77.57,717.42,77.57Zm-263.92-2c-24,0-28.53,13-28.53,22.75v1.57c0,9.75,5,23.11,28.53,23.11,23.83,0,28.41-13.36,28.41-23.11V98.27C481.91,88.53,477.33,75.52,453.5,75.52Zm-224.1,0c-24,0-28.53,13-28.53,22.75v1.57c0,9.75,5.06,23.11,28.53,23.11,23.83,0,28.41-13.36,28.41-23.11V98.27C257.81,88.53,253.23,75.52,229.4,75.52Zm0,0c-24,0-28.53,13-28.53,22.75v1.57c0,9.75,5.06,23.11,28.53,23.11,23.83,0,28.41-13.36,28.41-23.11V98.27C257.81,88.53,253.23,75.52,229.4,75.52Zm224.1,0c-24,0-28.53,13-28.53,22.75v1.57c0,9.75,5,23.11,28.53,23.11,23.83,0,28.41-13.36,28.41-23.11V98.27C481.91,88.53,477.33,75.52,453.5,75.52Zm263.92,2H685.53V96.46h31.89c9,0,12.16-3.73,12.16-9.38v-.36C729.58,81.42,726.45,77.57,717.42,77.57Zm109.65-.72-14.68,33.46h29.73Zm134.44.72h-31.9v18.9h31.9c9,0,12.15-3.73,12.15-9.39v-.36C973.66,81.42,970.54,77.57,961.51,77.57Zm0,0h-31.9v18.9h31.9c9,0,12.15-3.73,12.15-9.39v-.36C973.66,81.42,970.54,77.57,961.51,77.57Zm-134.44-.72-14.68,33.46h29.73Zm-109.65.72H685.53V96.46h31.89c9,0,12.16-3.73,12.16-9.38v-.36C729.58,81.42,726.45,77.57,717.42,77.57Zm-263.92-2c-24,0-28.53,13-28.53,22.75v1.57c0,9.75,5,23.11,28.53,23.11,23.83,0,28.41-13.36,28.41-23.11V98.27C481.91,88.53,477.33,75.52,453.5,75.52Zm-224.1,0c-24,0-28.53,13-28.53,22.75v1.57c0,9.75,5.06,23.11,28.53,23.11,23.83,0,28.41-13.36,28.41-23.11V98.27C257.81,88.53,253.23,75.52,229.4,75.52Zm0,0c-24,0-28.53,13-28.53,22.75v1.57c0,9.75,5.06,23.11,28.53,23.11,23.83,0,28.41-13.36,28.41-23.11V98.27C257.81,88.53,253.23,75.52,229.4,75.52Zm224.1,0c-24,0-28.53,13-28.53,22.75v1.57c0,9.75,5,23.11,28.53,23.11,23.83,0,28.41-13.36,28.41-23.11V98.27C481.91,88.53,477.33,75.52,453.5,75.52Zm263.92,2H685.53V96.46h31.89c9,0,12.16-3.73,12.16-9.38v-.36C729.58,81.42,726.45,77.57,717.42,77.57Zm109.65-.72-14.68,33.46h29.73Zm134.44.72h-31.9v18.9h31.9c9,0,12.15-3.73,12.15-9.39v-.36C973.66,81.42,970.54,77.57,961.51,77.57Zm0,0h-31.9v18.9h31.9c9,0,12.15-3.73,12.15-9.39v-.36C973.66,81.42,970.54,77.57,961.51,77.57Zm-134.44-.72-14.68,33.46h29.73Zm-109.65.72H685.53V96.46h31.89c9,0,12.16-3.73,12.16-9.38v-.36C729.58,81.42,726.45,77.57,717.42,77.57Zm-263.92-2c-24,0-28.53,13-28.53,22.75v1.57c0,9.75,5,23.11,28.53,23.11,23.83,0,28.41-13.36,28.41-23.11V98.27C481.91,88.53,477.33,75.52,453.5,75.52Zm-224.1,0c-24,0-28.53,13-28.53,22.75v1.57c0,9.75,5.06,23.11,28.53,23.11,23.83,0,28.41-13.36,28.41-23.11V98.27C257.81,88.53,253.23,75.52,229.4,75.52ZM0,10V188.72a10,10,0,0,0,10,10H1391.84a10,10,0,0,0,10-10V10a10,10,0,0,0-10-10H10A10,10,0,0,0,0,10ZM154.26,145.58H125.49v-34.9H77.94v34.9H49.17V56H77.94V89.61h47.55V56h28.77Zm133.52-44.66c0,18.78-10.83,44.66-55.73,44.66h-5.42c-44.78,0-55.74-25.88-55.74-44.66V97.31c0-19,11-44.17,55.74-44.17h5.42c44.78,0,55.73,25.15,55.73,44.17Zm99.43,44.66H304.27V56h28.78v66.21h54.16Zm124.67-44.66c0,18.78-10.84,44.66-55.74,44.66h-5.42C406,145.58,395,119.7,395,100.92V97.31c0-19,10.95-44.17,55.73-44.17h5.42c44.78,0,55.74,25.15,55.74,44.17Zm70.18,22.51c20.34,0,24.68-9.39,25.28-12.27h-25V94.78h55.31v49.47H617.09V128.77s-10.42,16.81-38.16,16.81h-2c-40.33,0-52.49-24.8-52.49-45V97.67c0-19.38,11.55-44.3,55-44.3h4.09c42.86,0,54.12,21.19,54.12,34.91H607.86s.23-13-26.28-12.76c-21.3,0-27.33,11.56-27.33,22.75v1.45C554.25,110.67,560.87,123.43,582.06,123.43Zm143.79,22.15L709.18,117.9H685.53v27.68H656.75V56h63.08c30.82,0,39.6,12.4,39.6,30v1.44c0,12.48-4.67,22.65-18.47,27.46l18.48,30.68Zm132,0-7-15.52H803.6l-6.86,15.52H768L808.66,56h37.92l42,89.56Zm145.61-58.14c0,17.46-9,30.45-39.6,30.45H929.6v27.69H900.84V56h63.07c30.82,0,39.6,12.4,39.6,30Zm120.67,58.14h-28.77v-34.9h-47.54v34.9H1019.1V56h28.77V89.61h47.54V56h28.77Zm107.16,0h-86.55V56h85.83V76.61h-57.3v13H1231v21.3h-57.67v13.85h58Zm87.75,0-16.67-27.68h-23.66v27.68H1250V56h63.08c30.82,0,39.6,12.4,39.6,30v1.44c0,12.48-4.66,22.65-18.47,27.46l18.48,30.68Zm-8.44-68h-31.89V96.46h31.89c9,0,12.16-3.73,12.16-9.38v-.36C1322.81,81.42,1319.68,77.57,1310.65,77.57Zm-349.14,0h-31.9v18.9h31.9c9,0,12.15-3.73,12.15-9.39v-.36C973.66,81.42,970.54,77.57,961.51,77.57ZM812.39,110.31h29.73l-15-33.46Zm-95-32.74H685.53V96.46h31.89c9,0,12.16-3.73,12.16-9.38v-.36C729.58,81.42,726.45,77.57,717.42,77.57Zm-263.92-2c-24,0-28.53,13-28.53,22.75v1.57c0,9.75,5,23.11,28.53,23.11,23.83,0,28.41-13.36,28.41-23.11V98.27C481.91,88.53,477.33,75.52,453.5,75.52Zm-224.1,0c-24,0-28.53,13-28.53,22.75v1.57c0,9.75,5.06,23.11,28.53,23.11,23.83,0,28.41-13.36,28.41-23.11V98.27C257.81,88.53,253.23,75.52,229.4,75.52Zm0,0c-24,0-28.53,13-28.53,22.75v1.57c0,9.75,5.06,23.11,28.53,23.11,23.83,0,28.41-13.36,28.41-23.11V98.27C257.81,88.53,253.23,75.52,229.4,75.52Zm224.1,0c-24,0-28.53,13-28.53,22.75v1.57c0,9.75,5,23.11,28.53,23.11,23.83,0,28.41-13.36,28.41-23.11V98.27C481.91,88.53,477.33,75.52,453.5,75.52Zm263.92,2H685.53V96.46h31.89c9,0,12.16-3.73,12.16-9.38v-.36C729.58,81.42,726.45,77.57,717.42,77.57Zm109.65-.72-14.68,33.46h29.73Zm134.44.72h-31.9v18.9h31.9c9,0,12.15-3.73,12.15-9.39v-.36C973.66,81.42,970.54,77.57,961.51,77.57Zm0,0h-31.9v18.9h31.9c9,0,12.15-3.73,12.15-9.39v-.36C973.66,81.42,970.54,77.57,961.51,77.57Zm-134.44-.72-14.68,33.46h29.73Zm-109.65.72H685.53V96.46h31.89c9,0,12.16-3.73,12.16-9.38v-.36C729.58,81.42,726.45,77.57,717.42,77.57Zm-263.92-2c-24,0-28.53,13-28.53,22.75v1.57c0,9.75,5,23.11,28.53,23.11,23.83,0,28.41-13.36,28.41-23.11V98.27C481.91,88.53,477.33,75.52,453.5,75.52Zm-224.1,0c-24,0-28.53,13-28.53,22.75v1.57c0,9.75,5.06,23.11,28.53,23.11,23.83,0,28.41-13.36,28.41-23.11V98.27C257.81,88.53,253.23,75.52,229.4,75.52Zm0,0c-24,0-28.53,13-28.53,22.75v1.57c0,9.75,5.06,23.11,28.53,23.11,23.83,0,28.41-13.36,28.41-23.11V98.27C257.81,88.53,253.23,75.52,229.4,75.52Zm224.1,0c-24,0-28.53,13-28.53,22.75v1.57c0,9.75,5,23.11,28.53,23.11,23.83,0,28.41-13.36,28.41-23.11V98.27C481.91,88.53,477.33,75.52,453.5,75.52Zm263.92,2H685.53V96.46h31.89c9,0,12.16-3.73,12.16-9.38v-.36C729.58,81.42,726.45,77.57,717.42,77.57Zm109.65-.72-14.68,33.46h29.73Zm0,0-14.68,33.46h29.73Zm-109.65.72H685.53V96.46h31.89c9,0,12.16-3.73,12.16-9.38v-.36C729.58,81.42,726.45,77.57,717.42,77.57Zm-263.92-2c-24,0-28.53,13-28.53,22.75v1.57c0,9.75,5,23.11,28.53,23.11,23.83,0,28.41-13.36,28.41-23.11V98.27C481.91,88.53,477.33,75.52,453.5,75.52Zm-224.1,0c-24,0-28.53,13-28.53,22.75v1.57c0,9.75,5.06,23.11,28.53,23.11,23.83,0,28.41-13.36,28.41-23.11V98.27C257.81,88.53,253.23,75.52,229.4,75.52Zm0,0c-24,0-28.53,13-28.53,22.75v1.57c0,9.75,5.06,23.11,28.53,23.11,23.83,0,28.41-13.36,28.41-23.11V98.27C257.81,88.53,253.23,75.52,229.4,75.52Zm224.1,0c-24,0-28.53,13-28.53,22.75v1.57c0,9.75,5,23.11,28.53,23.11,23.83,0,28.41-13.36,28.41-23.11V98.27C481.91,88.53,477.33,75.52,453.5,75.52Zm0,0c-24,0-28.53,13-28.53,22.75v1.57c0,9.75,5,23.11,28.53,23.11,23.83,0,28.41-13.36,28.41-23.11V98.27C481.91,88.53,477.33,75.52,453.5,75.52Zm-224.1,0c-24,0-28.53,13-28.53,22.75v1.57c0,9.75,5.06,23.11,28.53,23.11,23.83,0,28.41-13.36,28.41-23.11V98.27C257.81,88.53,253.23,75.52,229.4,75.52Zm0,0c-24,0-28.53,13-28.53,22.75v1.57c0,9.75,5.06,23.11,28.53,23.11,23.83,0,28.41-13.36,28.41-23.11V98.27C257.81,88.53,253.23,75.52,229.4,75.52Zm0,0c-24,0-28.53,13-28.53,22.75v1.57c0,9.75,5.06,23.11,28.53,23.11,23.83,0,28.41-13.36,28.41-23.11V98.27C257.81,88.53,253.23,75.52,229.4,75.52Z"/></g></g></svg>